<?xml version="1.0" standalone="no"?><!DOCTYPE svg PUBLIC "-//W3C//DTD SVG 1.1//EN" "http://www.w3.org/Graphics/SVG/1.1/DTD/svg11.dtd"><svg t="1599530844399" class="icon" viewBox="0 0 1024 1024" version="1.1" xmlns="http://www.w3.org/2000/svg" p-id="2447" width="32" height="32" xmlns:xlink="http://www.w3.org/1999/xlink"><defs><style type="text/css"></style></defs><path d="M256.727757 323.584c16.9984 0 30.72-13.7216 30.72-30.72 0-125.952 102.4-228.352 228.352-228.352s228.352 102.4 228.352 228.352c0 16.9984 13.7216 30.72 30.72 30.72s30.72-13.7216 30.72-30.72c0-159.744-130.048-289.792-289.792-289.792S226.007757 133.12 226.007757 292.864c0 16.9984 13.7216 30.72 30.72 30.72zM895.089357 358.4H129.137357C51.108557 358.4-9.102643 431.104 1.137357 512.8192l37.888 303.104C53.975757 934.912 150.026957 1024 263.690957 1024h496.8448c113.664 0 209.5104-89.088 224.4608-208.0768l37.888-303.104c10.24-81.7152-49.7664-154.4192-127.7952-154.4192zM279.665357 692.224c-41.3696 0-74.752-33.3824-74.752-74.752s33.3824-74.752 74.752-74.752 74.752 33.3824 74.752 74.752-33.3824 74.752-74.752 74.752z m495.616 0c-41.3696 0-74.752-33.3824-74.752-74.752s33.3824-74.752 74.752-74.752 74.752 33.3824 74.752 74.752-33.3824 74.752-74.752 74.752z" p-id="2448"></path></svg>